<svg xmlns="http://www.w3.org/2000/svg" width="1600" height="1400" viewBox="0 0 1600 1400">
  <rect width="1600" height="1400" fill="#fbfaf7"/>
  <g stroke="#ddd7cd" stroke-width="2" fill="none" opacity="0.55">
    <path d="M-20 110 C250 40, 430 180, 720 120 S1170 20, 1620 150"/>
    <path d="M0 350 C300 300, 420 420, 760 360 S1220 270, 1640 360"/>
    <path d="M-20 620 C250 710, 430 550, 760 640 S1200 770, 1620 690"/>
    <path d="M0 960 C220 860, 500 1040, 830 960 S1240 880, 1620 980"/>
    <path d="M90 -10 C130 220, 40 370, 120 660 S170 1070, 110 1410"/>
    <path d="M540 -20 C500 190, 640 430, 590 740 S560 1120, 620 1430"/>
    <path d="M1120 -10 C1030 210, 1210 390, 1120 700 S1080 1120, 1190 1420"/>
  </g>
</svg>